<svg width="86" height="86" viewBox="0 0 86 86" fill="none" xmlns="http://www.w3.org/2000/svg">
<g clip-path="url(#clip0)">
<path d="M42.2227 72.6952C41.9103 72.3828 41.4769 72.2029 41.0352 72.2029C40.5934 72.2029 40.16 72.3826 39.8476 72.6952C39.5352 73.0074 39.3555 73.4408 39.3555 73.8826C39.3555 74.3262 39.5352 74.7577 39.8476 75.0701C40.16 75.3842 40.5934 75.5622 41.0352 75.5622C41.4769 75.5622 41.9103 75.3842 42.2227 75.0701C42.5351 74.7577 42.7148 74.3245 42.7148 73.8826C42.7148 73.4408 42.5349 73.0074 42.2227 72.6952Z" fill="white"/>
<path d="M50.2195 57.1997V44.8402C50.2195 44.2822 49.9424 43.7605 49.48 43.4483C49.0176 43.136 48.4302 43.0739 47.9123 43.2821L18.9692 54.9387H9.64693C4.32771 54.9387 0 59.2664 0 64.5859C0 69.9055 4.32771 74.2332 9.64727 74.2332H10.7574V84.32C10.7574 85.2476 11.5094 85.9997 12.4371 85.9997H19.2942C20.2219 85.9997 20.9739 85.2476 20.9739 84.32V75.0435L47.9132 85.8784C48.1152 85.9597 48.328 85.9999 48.5397 85.9999C48.8702 85.9999 49.1985 85.9023 49.4803 85.712C49.9426 85.3997 50.2195 84.878 50.2195 84.3202V71.9609C53.588 71.1945 56.1105 68.1774 56.1105 64.5804C56.1105 60.9833 53.588 57.9661 50.2195 57.1997ZM17.6143 82.6403H14.1167V74.233H17.6145V82.6403H17.6143ZM17.6147 70.8736H9.64727C6.18006 70.8736 3.35937 68.053 3.35937 64.5859C3.35937 61.1187 6.18006 58.298 9.64727 58.298H17.6154L17.6147 70.8736ZM46.8603 81.8339H46.8602L20.9747 71.4227V57.7525L39.355 50.3501V67.0193C39.355 67.9468 40.107 68.699 41.0347 68.699C41.9624 68.699 42.7144 67.9468 42.7144 67.0193V48.9971L46.8603 47.3273V81.8339ZM50.2195 68.441V60.7195C51.7079 61.3695 52.7512 62.855 52.7512 64.5802C52.7512 66.3054 51.7081 67.7909 50.2195 68.441Z" fill="white"/>
<path d="M72.135 62.9504H62.625C61.6973 62.9504 60.9453 63.7026 60.9453 64.6301C60.9453 65.5576 61.6973 66.3098 62.625 66.3098H72.135C73.0627 66.3098 73.8147 65.5576 73.8147 64.6301C73.8147 63.7026 73.0627 62.9504 72.135 62.9504Z" fill="white"/>
<path d="M64.3354 50.6422C63.6795 49.9865 62.616 49.9865 61.9599 50.6422L58.6794 53.9226C58.0235 54.5786 58.0235 55.6421 58.6794 56.2982C59.0076 56.6261 59.4375 56.7902 59.8673 56.7902C60.2971 56.7902 60.7271 56.6261 61.055 56.2982L64.3354 53.0178C64.9914 52.3619 64.9914 51.2983 64.3354 50.6422Z" fill="white"/>
<path d="M64.4588 76.0857L61.0687 72.6954C60.4128 72.0397 59.3492 72.0397 58.6931 72.6954C58.0372 73.3513 58.0372 74.4149 58.6931 75.071L62.0834 78.4613C62.4114 78.7892 62.8413 78.9533 63.2711 78.9533C63.7009 78.9533 64.1309 78.7892 64.4588 78.4613C65.1147 77.8054 65.1147 76.7418 64.4588 76.0857Z" fill="white"/>
<path d="M79.2811 0H48.039C44.3343 0 41.3203 3.01403 41.3203 6.71874V7.39061H13.1016C10.8787 7.39061 9.07031 9.19913 9.07031 11.4219V37.9609C9.07031 40.1836 10.8787 41.9921 13.1016 41.9921H14.8372V47.1432C14.8372 47.8226 15.2465 48.435 15.874 48.6951C16.0818 48.7811 16.3 48.8229 16.5165 48.8229C16.9536 48.8229 17.3832 48.6522 17.7046 48.3309L24.0434 41.9921H57.4083C59.6312 41.9921 61.4395 40.1836 61.4395 37.9609V32.9218H79.2811C82.9858 32.9218 85.9998 29.9078 85.9998 26.2031V6.71874C85.9997 3.01403 82.9858 0 79.2811 0ZM58.0801 37.9609C58.0801 38.3314 57.7788 38.6327 57.4083 38.6327H23.3476C22.9022 38.6327 22.4749 38.8098 22.1599 39.1247L18.1967 43.0881V40.3124C18.1967 39.3849 17.4447 38.6327 16.517 38.6327H13.1016C12.731 38.6327 12.4297 38.3314 12.4297 37.9609V11.4219C12.4297 11.0513 12.731 10.75 13.1016 10.75H41.3203V26.2031C41.3203 29.9078 44.3343 32.9218 48.039 32.9218H58.0801V37.9609ZM82.6405 26.2031C82.6405 28.0554 81.1335 29.5624 79.2811 29.5624H48.039C46.1866 29.5624 44.6796 28.0554 44.6796 26.2031V6.71874C44.6796 4.86638 46.1866 3.35937 48.039 3.35937H79.2811C81.1335 3.35937 82.6405 4.86638 82.6405 6.71874V26.2031Z" fill="white"/>
<path d="M70.4079 15.0063L58.9121 8.36916C58.3924 8.069 57.7521 8.069 57.2324 8.36916C56.7127 8.66915 56.3926 9.22379 56.3926 9.82377V23.0978C56.3926 23.6978 56.7127 24.2524 57.2324 24.5524C57.4923 24.7026 57.7822 24.7775 58.0723 24.7775C58.3623 24.7775 58.6523 24.7026 58.9121 24.5524L70.4079 17.9153C70.9276 17.6153 71.2477 17.0607 71.2477 16.4607C71.2477 15.8607 70.9277 15.3063 70.4079 15.0063ZM59.7519 20.1886V12.7332L66.2087 16.4609L59.7519 20.1886Z" fill="white"/>
<path d="M36.0312 17.6367H19.2344C18.3067 17.6367 17.5547 18.3889 17.5547 19.3164C17.5547 20.2439 18.3067 20.9961 19.2344 20.9961H36.0312C36.9589 20.9961 37.7109 20.2439 37.7109 19.3164C37.7109 18.3889 36.9589 17.6367 36.0312 17.6367Z" fill="white"/>
<path d="M37.2188 27.5351C36.9064 27.2225 36.473 27.043 36.0312 27.043C35.5895 27.043 35.1561 27.2225 34.8437 27.5351C34.5313 27.8475 34.3516 28.2809 34.3516 28.7227C34.3516 29.1644 34.5313 29.5978 34.8437 29.91C35.1561 30.2224 35.5895 30.4023 36.0312 30.4023C36.4747 30.4023 36.9064 30.2226 37.2188 29.91C37.5312 29.5978 37.7109 29.1644 37.7109 28.7227C37.7109 28.2809 37.5312 27.8475 37.2188 27.5351Z" fill="white"/>
<path d="M29.7306 27.043H19.2344C18.3067 27.043 17.5547 27.7951 17.5547 28.7227C17.5547 29.6502 18.3067 30.4023 19.2344 30.4023H29.7306C30.6582 30.4023 31.4102 29.6502 31.4102 28.7227C31.4102 27.7951 30.6582 27.043 29.7306 27.043Z" fill="white"/>
</g>
<defs>
<clipPath id="clip0">
<rect width="86" height="86" fill="white"/>
</clipPath>
</defs>
</svg>
