<svg width="127" height="110" viewBox="0 0 127 110" fill="none" xmlns="http://www.w3.org/2000/svg">
<path d="M119.919 21.0385H96.7771V14.7269C96.7679 6.59741 90.1797 0.00920434 82.0501 0H44.1808C36.0513 0.00920434 29.4631 6.59741 29.4539 14.7269V21.0385H6.31155C2.82573 21.0385 0 23.8642 0 27.35V69.427C0.0110452 72.0921 1.69491 74.4631 4.2077 75.3515V103.089C4.2077 106.574 7.03343 109.4 10.5192 109.4H115.712C119.198 109.4 122.023 106.574 122.023 103.089V75.3515C124.536 74.4631 126.22 72.0921 126.231 69.427V27.35C126.231 23.8642 123.405 21.0385 119.919 21.0385ZM33.6616 14.7269C33.6684 8.92032 38.3742 4.21454 44.1808 4.2077H82.0501C87.8568 4.21454 92.5626 8.92032 92.5694 14.7269V21.0385H88.2775L88.3617 14.7269C88.3549 11.244 85.5331 8.42224 82.0501 8.4154H44.103C40.6201 8.42224 37.7983 11.244 37.7915 14.7269V14.748L37.8483 21.0385H33.6616V14.7269ZM84.154 14.6975L84.0698 21.0385H42.056L41.9907 14.7269C41.9907 13.5651 42.9327 12.6231 44.0946 12.6231H82.0501C83.2007 12.6231 84.138 13.547 84.154 14.6975ZM117.816 103.089C117.816 104.25 116.874 105.192 115.712 105.192H10.5192C9.3574 105.192 8.4154 104.25 8.4154 103.089V75.7386H23.1423V82.0501C23.1423 83.212 24.0843 84.154 25.2462 84.154H33.6616C34.8234 84.154 35.7654 83.212 35.7654 82.0501V75.7386H90.4655V82.0501C90.4655 83.212 91.4075 84.154 92.5694 84.154H100.985C102.147 84.154 103.089 83.212 103.089 82.0501V75.7386H117.816V103.089ZM27.35 79.9463V69.427C27.349 68.8598 27.5828 68.3175 27.9959 67.9291C28.3786 67.5359 28.9053 67.3169 29.4539 67.3232C30.6157 67.3232 31.5577 68.2652 31.5577 69.427V73.6347V79.9463H27.35ZM94.6732 79.9463V69.427C94.6732 68.2652 95.6152 67.3232 96.7771 67.3232C97.3446 67.3214 97.8877 67.5544 98.2771 67.967C98.6674 68.3522 98.8852 68.8787 98.8809 69.427V73.6347V79.9463H94.6732ZM122.023 69.427C122.023 70.5889 121.081 71.5309 119.919 71.5309H103.089V69.427C103.074 65.9475 100.257 63.1305 96.7771 63.1155C93.2913 63.1155 90.4655 65.9412 90.4655 69.427V71.5309H35.7654V69.427C35.7654 65.9412 32.9397 63.1155 29.4539 63.1155C25.9762 63.1349 23.1618 65.9494 23.1423 69.427V71.5309H6.31155C5.1497 71.5309 4.2077 70.5889 4.2077 69.427V27.35C4.2077 26.1882 5.1497 25.2462 6.31155 25.2462H119.919C121.081 25.2462 122.023 26.1882 122.023 27.35V69.427Z" fill="white"/>
</svg>
