<svg width="108" height="107" viewBox="0 0 108 107" fill="none" xmlns="http://www.w3.org/2000/svg">
<path d="M62.9167 39.7212L102.195 47.5233C105.36 48.192 107.5 50.867 107.5 54.0324V99.5074C107.5 103.208 104.513 106.195 100.812 106.195H60.6875C61.9358 106.195 62.9167 105.214 62.9167 103.966V101.737H100.812C102.016 101.737 103.042 100.756 103.042 99.5074V54.0324C103.042 53.007 102.328 52.0708 101.303 51.8479L62.9167 44.2687V39.7212Z" fill="white"/>
<path d="M87.4378 61.6118C88.6862 61.6118 89.667 62.5926 89.667 63.841C89.667 65.0893 88.6862 66.0701 87.4378 66.0701H78.5212C77.2728 66.0701 76.292 65.0893 76.292 63.841C76.292 62.5926 77.2728 61.6118 78.5212 61.6118H87.4378Z" fill="white"/>
<path d="M87.4378 74.9868C88.6862 74.9868 89.667 75.9676 89.667 77.216C89.667 78.4643 88.6862 79.4451 87.4378 79.4451H78.5212C77.2728 79.4451 76.292 78.4643 76.292 77.216C76.292 75.9676 77.2728 74.9868 78.5212 74.9868H87.4378Z" fill="white"/>
<path d="M87.4378 88.3618C88.6862 88.3618 89.667 89.3426 89.667 90.591C89.667 91.8393 88.6862 92.8201 87.4378 92.8201H78.5212C77.2728 92.8201 76.292 91.8393 76.292 90.591C76.292 89.3426 77.2728 88.3618 78.5212 88.3618H87.4378Z" fill="white"/>
<path d="M62.9163 103.966C62.9163 105.214 61.9355 106.195 60.6872 106.195C59.4388 106.195 58.458 105.214 58.458 103.966V101.737V41.5493C58.458 40.8805 58.7701 40.2564 59.2605 39.8105C59.7955 39.4093 60.4643 39.231 61.133 39.3647L62.9163 39.7214V44.2689V101.737V103.966Z" fill="white"/>
<path d="M58.4587 101.737V103.966C58.4587 105.214 59.4395 106.195 60.6878 106.195H42.8545C44.1028 106.195 45.0837 105.214 45.0837 103.966V101.737H58.4587Z" fill="white"/>
<path d="M47.3128 21.4868C48.5612 21.4868 49.542 22.4676 49.542 23.716C49.542 24.9643 48.5612 25.9451 47.3128 25.9451H38.3962C37.1478 25.9451 36.167 24.9643 36.167 23.716C36.167 22.4676 37.1478 21.4868 38.3962 21.4868H47.3128Z" fill="white"/>
<path d="M49.542 37.091C49.542 38.3393 48.5612 39.3201 47.3128 39.3201H38.3962C37.1478 39.3201 36.167 38.3393 36.167 37.091C36.167 35.8426 37.1478 34.8618 38.3962 34.8618H47.3128C48.5612 34.8618 49.542 35.8426 49.542 37.091Z" fill="white"/>
<path d="M47.3128 48.2368C48.5612 48.2368 49.542 49.2176 49.542 50.466C49.542 51.7143 48.5612 52.6951 47.3128 52.6951H38.3962C37.1478 52.6951 36.167 51.7143 36.167 50.466C36.167 49.2176 37.1478 48.2368 38.3962 48.2368H47.3128Z" fill="white"/>
<path d="M47.3128 61.6118C48.5612 61.6118 49.542 62.5926 49.542 63.841C49.542 65.0893 48.5612 66.0701 47.3128 66.0701H38.3962C37.1478 66.0701 36.167 65.0893 36.167 63.841C36.167 62.5926 37.1478 61.6118 38.3962 61.6118H47.3128Z" fill="white"/>
<path d="M27.25 63.841C27.25 65.0893 26.2692 66.0701 25.0208 66.0701H16.1042C14.8558 66.0701 13.875 65.0893 13.875 63.841C13.875 62.5926 14.8558 61.6118 16.1042 61.6118H25.0208C26.2692 61.6118 27.25 62.5926 27.25 63.841Z" fill="white"/>
<path d="M25.0208 21.4868C26.2692 21.4868 27.25 22.4676 27.25 23.716C27.25 24.9643 26.2692 25.9451 25.0208 25.9451H16.1042C14.8558 25.9451 13.875 24.9643 13.875 23.716C13.875 22.4676 14.8558 21.4868 16.1042 21.4868H25.0208Z" fill="white"/>
<path d="M25.0208 34.8618C26.2692 34.8618 27.25 35.8426 27.25 37.091C27.25 38.3393 26.2692 39.3201 25.0208 39.3201H16.1042C14.8558 39.3201 13.875 38.3393 13.875 37.091C13.875 35.8426 14.8558 34.8618 16.1042 34.8618H25.0208Z" fill="white"/>
<path d="M25.0208 48.2368C26.2692 48.2368 27.25 49.2176 27.25 50.466C27.25 51.7143 26.2692 52.6951 25.0208 52.6951H16.1042C14.8558 52.6951 13.875 51.7143 13.875 50.466C13.875 49.2176 14.8558 48.2368 16.1042 48.2368H25.0208Z" fill="white"/>
<path d="M40.6247 81.6743C40.6247 80.426 39.5993 79.4451 38.3955 79.4451H25.0205C23.7722 79.4451 22.7913 80.426 22.7913 81.6743V101.737H18.333V81.6743C18.333 77.9739 21.3201 74.9868 25.0205 74.9868H38.3955C42.0959 74.9868 45.083 77.9739 45.083 81.6743V101.737H40.6247V81.6743Z" fill="white"/>
<path d="M22.7913 101.737H40.6247H45.083V103.966C45.083 105.214 44.1022 106.195 42.8538 106.195H20.5622C19.3138 106.195 18.333 105.214 18.333 103.966V101.737H22.7913Z" fill="white"/>
<path d="M8.30208 0.0867992L57.2992 7.53222C60.5538 8.06721 62.9167 10.8314 62.9167 14.1305V39.7214L61.1333 39.3647C60.4646 39.231 59.7958 39.4093 59.2608 39.8105C58.7704 40.2564 58.4583 40.8805 58.4583 41.5493V14.1305C58.4583 13.016 57.6558 12.0797 56.5858 11.9014L7.58875 4.50055C7.455 4.45597 7.32125 4.45597 7.1875 4.45597C6.6525 4.45597 6.16208 4.6343 5.76083 4.99097C5.22583 5.4368 4.95833 6.01638 4.95833 6.68513V99.5076C4.95833 100.756 5.98375 101.737 7.1875 101.737H18.3333V103.966C18.3333 105.214 19.3142 106.195 20.5625 106.195H7.1875C3.48708 106.195 0.5 103.208 0.5 99.5076V6.68513C0.5 4.72347 1.34708 2.85097 2.86292 1.60263C4.37875 0.309716 6.34042 -0.225284 8.30208 0.0867992Z" fill="white"/>
</svg>
