<svg width="130" height="130" viewBox="0 0 130 130" fill="none" xmlns="http://www.w3.org/2000/svg">
<path d="M64.645 53.8713C55.9471 53.8775 47.4037 56.171 39.8722 60.5216C32.3406 64.8723 26.0856 71.1272 21.7347 78.6587C17.3839 86.1902 15.0903 94.7335 15.084 103.431C15.0777 112.129 17.3589 120.676 21.6988 128.214C21.8886 128.543 22.162 128.815 22.4912 129.005C22.8204 129.194 23.1938 129.293 23.5735 129.291H105.716C106.094 129.294 106.465 129.196 106.791 129.006C107.117 128.817 107.386 128.543 107.57 128.214C111.92 120.679 114.21 112.132 114.21 103.432C114.209 94.732 111.919 86.1852 107.569 78.6508C103.219 71.1164 96.9616 64.8599 89.4268 60.5102C81.8921 56.1605 73.3451 53.8708 64.645 53.8713ZM24.8664 81.8844H39.3255C37.6769 88.2217 36.7801 94.7311 36.6535 101.278H19.5008C19.7953 94.4902 21.6301 87.8583 24.8664 81.8844ZM24.8449 124.981C21.6107 119.005 19.7691 112.376 19.4577 105.588H36.7181C36.8477 112.137 37.7592 118.648 39.4332 124.981H24.8449ZM27.56 77.5747C33.1578 69.5625 41.191 63.5697 50.466 60.4867C45.9649 65.3878 42.6022 71.2229 40.6184 77.5747H27.56ZM62.4901 124.981H43.8507C42.0815 118.664 41.1256 112.147 41.0063 105.588H62.4901V124.981ZM62.4901 101.278H41.0063C41.1422 94.7157 42.1199 88.1979 43.9153 81.8844H62.4901V101.278ZM62.4901 77.5747H45.359C49.3024 67.0159 55.5084 59.6679 62.4901 58.3965V77.5747ZM109.789 101.278H92.6365C92.5099 94.7311 91.613 88.2217 89.9645 81.8844H104.424C107.66 87.8583 109.495 94.4902 109.789 101.278ZM66.7998 58.3965C73.7815 59.6679 79.9875 67.0159 83.9309 77.5747H66.7998V58.3965ZM85.4393 124.981H66.7998V105.588H88.2837C88.1643 112.147 87.2085 118.664 85.4393 124.981ZM66.7998 101.278V81.8844H85.3746C87.17 88.1979 88.1477 94.7157 88.2837 101.278H66.7998ZM78.8239 60.4867C88.099 63.5697 96.1321 69.5625 101.73 77.5747H88.6716C86.6878 71.2229 83.3251 65.3878 78.8239 60.4867ZM104.445 124.981H89.8567C91.5307 118.648 92.4422 112.137 92.5718 105.588H109.832C109.521 112.376 107.679 119.005 104.445 124.981Z" fill="white"/>
<path d="M17.2394 49.5615C19.6196 49.5615 21.5491 47.632 21.5491 45.2518C21.5491 42.8717 19.6196 40.9421 17.2394 40.9421C14.8592 40.9421 12.9297 42.8717 12.9297 45.2518C12.9297 47.632 14.8592 49.5615 17.2394 49.5615Z" fill="white"/>
<path d="M28.0133 49.5615C30.3935 49.5615 32.323 47.632 32.323 45.2518C32.323 42.8717 30.3935 40.9421 28.0133 40.9421C25.6331 40.9421 23.7036 42.8717 23.7036 45.2518C23.7036 47.632 25.6331 49.5615 28.0133 49.5615Z" fill="white"/>
<path d="M34.4774 23.7035H15.3704L15.0665 21.2814C15.0014 20.7604 14.7483 20.281 14.3546 19.9334C13.961 19.5858 13.454 19.3939 12.9289 19.3938H8.61921C8.0477 19.3938 7.49961 19.6208 7.0955 20.0249C6.69138 20.4291 6.46436 20.9771 6.46436 21.5486C6.46436 22.1202 6.69138 22.6682 7.0955 23.0724C7.49961 23.4765 8.0477 23.7035 8.61921 23.7035H11.0262L11.3257 26.0975V26.16L12.9375 39.0547C13.0028 39.5772 13.2572 40.0578 13.6526 40.4055C14.0481 40.7533 14.5572 40.9443 15.0838 40.9423H30.1677C30.6202 40.9424 31.0612 40.8001 31.4282 40.5356C31.7952 40.271 32.0697 39.8976 32.2127 39.4684L36.5224 26.5393C36.6303 26.2153 36.6596 25.8704 36.6081 25.5329C36.5565 25.1953 36.4254 24.8749 36.2257 24.598C36.026 24.321 35.7634 24.0955 35.4594 23.94C35.1554 23.7845 34.8189 23.7034 34.4774 23.7035ZM28.6141 36.6326H16.9779L15.9004 28.0132H31.48L28.6141 36.6326Z" fill="white"/>
<path d="M36.6325 12.929H6.46455C4.75005 12.929 3.10576 13.61 1.89342 14.8224C0.681085 16.0347 0 17.679 0 19.3935V49.5614C0 51.2759 0.681085 52.9202 1.89342 54.1326C3.10576 55.3449 4.75005 56.026 6.46455 56.026H18.5016L28.6444 66.1689C28.9458 66.4701 29.3297 66.6753 29.7477 66.7584C30.1656 66.8415 30.5988 66.7988 30.9925 66.6358C31.3862 66.4727 31.7227 66.1966 31.9595 65.8423C32.1962 65.488 32.3227 65.0715 32.3228 64.6454V56.026H36.6325C38.347 56.026 39.9913 55.3449 41.2036 54.1326C42.4159 52.9202 43.097 51.2759 43.097 49.5614V19.3935C43.097 17.679 42.4159 16.0347 41.2036 14.8224C39.9913 13.61 38.347 12.929 36.6325 12.929ZM38.7873 49.5614C38.7873 50.1329 38.5603 50.681 38.1562 51.0851C37.7521 51.4892 37.204 51.7163 36.6325 51.7163H30.1679C29.5964 51.7163 29.0483 51.9433 28.6442 52.3474C28.2401 52.7515 28.0131 53.2996 28.0131 53.8711V59.4436L20.9171 52.3476C20.5131 51.9435 19.9651 51.7164 19.3937 51.7163H6.46455C5.89305 51.7163 5.34496 51.4892 4.94084 51.0851C4.53673 50.681 4.3097 50.1329 4.3097 49.5614V19.3935C4.3097 18.822 4.53673 18.2739 4.94084 17.8698C5.34496 17.4657 5.89305 17.2387 6.46455 17.2387H36.6325C37.204 17.2387 37.7521 17.4657 38.1562 17.8698C38.5603 18.2739 38.7873 18.822 38.7873 19.3935V49.5614Z" fill="white"/>
<path d="M62.4909 15.084H66.8006C67.3721 15.084 67.9202 15.311 68.3243 15.7151C68.7284 16.1193 68.9555 16.6674 68.9555 17.2389C68.9555 17.8104 69.1825 18.3585 69.5866 18.7626C69.9907 19.1667 70.5388 19.3937 71.1103 19.3937C71.6818 19.3937 72.2299 19.1667 72.634 18.7626C73.0381 18.3585 73.2652 17.8104 73.2652 17.2389C73.2652 15.5243 72.5841 13.8801 71.3717 12.6677C70.1594 11.4554 68.5151 10.7743 66.8006 10.7743V8.61945C66.8006 8.04795 66.5736 7.49985 66.1695 7.09574C65.7654 6.69163 65.2173 6.4646 64.6458 6.4646C64.0743 6.4646 63.5262 6.69163 63.1221 7.09574C62.7179 7.49985 62.4909 8.04795 62.4909 8.61945V10.7743C60.7764 10.7743 59.1321 11.4554 57.9198 12.6677C56.7075 13.8801 56.0264 15.5243 56.0264 17.2389C56.0264 18.9534 56.7075 20.5976 57.9198 21.81C59.1321 23.0223 60.7764 23.7034 62.4909 23.7034H66.8006C67.3721 23.7034 67.9202 23.9304 68.3243 24.3346C68.7284 24.7387 68.9555 25.2868 68.9555 25.8583C68.9555 26.4298 68.7284 26.9779 68.3243 27.382C67.9202 27.7861 67.3721 28.0131 66.8006 28.0131H62.4909C61.9194 28.0131 61.3713 27.7861 60.9672 27.382C60.5631 26.9779 60.3361 26.4298 60.3361 25.8583C60.3361 25.2868 60.109 24.7387 59.7049 24.3346C59.3008 23.9304 58.7527 23.7034 58.1812 23.7034C57.6097 23.7034 57.0616 23.9304 56.6575 24.3346C56.2534 24.7387 56.0264 25.2868 56.0264 25.8583C56.0264 27.5728 56.7075 29.2171 57.9198 30.4294C59.1321 31.6417 60.7764 32.3228 62.4909 32.3228V34.4777C62.4909 35.0492 62.7179 35.5973 63.1221 36.0014C63.5262 36.4055 64.0743 36.6325 64.6458 36.6325C65.2173 36.6325 65.7654 36.4055 66.1695 36.0014C66.5736 35.5973 66.8006 35.0492 66.8006 34.4777V32.3228C68.5151 32.3228 70.1594 31.6417 71.3717 30.4294C72.5841 29.2171 73.2652 27.5728 73.2652 25.8583C73.2652 24.1438 72.5841 22.4995 71.3717 21.2871C70.1594 20.0748 68.5151 19.3937 66.8006 19.3937H62.4909C61.9194 19.3937 61.3713 19.1667 60.9672 18.7626C60.5631 18.3585 60.3361 17.8104 60.3361 17.2389C60.3361 16.6674 60.5631 16.1193 60.9672 15.7151C61.3713 15.311 61.9194 15.084 62.4909 15.084Z" fill="white"/>
<path d="M64.6466 0C59.505 0.00627268 54.5758 2.05154 50.9401 5.6872C47.3045 9.32286 45.2592 14.2521 45.2529 19.3937C45.2529 29.3512 61.1191 50.6239 62.9227 53.0093C63.1234 53.277 63.3837 53.4942 63.6829 53.6438C63.9821 53.7934 64.3121 53.8713 64.6466 53.8713C64.9811 53.8713 65.3111 53.7934 65.6103 53.6438C65.9095 53.4942 66.1698 53.277 66.3705 53.0093C68.1805 50.6175 84.0402 29.3448 84.0402 19.3937C84.0345 14.2519 81.9895 9.32235 78.3537 5.68657C74.7179 2.05079 69.7884 0.00570357 64.6466 0ZM64.6466 48.0833C59.2595 40.606 49.5626 25.841 49.5626 19.3937C49.5626 15.3931 51.1518 11.5565 53.9806 8.72769C56.8094 5.8989 60.6461 4.3097 64.6466 4.3097C68.6471 4.3097 72.4838 5.8989 75.3126 8.72769C78.1413 11.5565 79.7305 15.3931 79.7305 19.3937C79.7305 25.841 70.0337 40.606 64.6466 48.0833Z" fill="white"/>
<path d="M122.826 10.7744H92.6579C90.945 10.7795 89.3037 11.4623 88.0924 12.6735C86.8812 13.8847 86.1985 15.526 86.1934 17.239V49.5617C86.1985 51.2747 86.8812 52.916 88.0924 54.1272C89.3037 55.3384 90.945 56.0212 92.6579 56.0263H96.9676V64.6457C96.966 65.072 97.0925 65.4889 97.3307 65.8424C97.5689 66.1959 97.9079 66.4696 98.3036 66.6281C98.5593 66.7489 98.8398 66.808 99.1225 66.8005C99.6949 66.8022 100.245 66.5776 100.652 66.1756L110.78 56.0263H122.826C124.539 56.0212 126.18 55.3384 127.391 54.1272C128.603 52.916 129.285 51.2747 129.29 49.5617V17.239C129.285 15.526 128.603 13.8847 127.391 12.6735C126.18 11.4623 124.539 10.7795 122.826 10.7744ZM124.981 49.5617C124.981 50.1332 124.754 50.6813 124.35 51.0854C123.945 51.4896 123.397 51.7166 122.826 51.7166H109.897C109.325 51.7208 108.778 51.9446 108.367 52.3415L101.277 59.4525V53.8714C101.277 53.2999 101.05 52.7518 100.646 52.3477C100.242 51.9436 99.694 51.7166 99.1225 51.7166H92.6579C92.0864 51.7166 91.5383 51.4896 91.1342 51.0854C90.7301 50.6813 90.5031 50.1332 90.5031 49.5617V17.239C90.5031 16.6675 90.7301 16.1194 91.1342 15.7153C91.5383 15.3111 92.0864 15.0841 92.6579 15.0841H122.826C123.397 15.0841 123.945 15.3111 124.35 15.7153C124.754 16.1194 124.981 16.6675 124.981 17.239V49.5617Z" fill="white"/>
<path d="M116.362 28.0128H114.208V23.7031C114.208 21.9886 113.526 20.3443 112.314 19.1319C111.102 17.9196 109.458 17.2385 107.743 17.2385C106.028 17.2385 104.384 17.9196 103.172 19.1319C101.96 20.3443 101.278 21.9886 101.278 23.7031V28.0128H99.1236C98.5521 28.0128 98.004 28.2398 97.5999 28.6439C97.1958 29.048 96.9688 29.5961 96.9688 30.1676V43.0967C96.9739 44.8097 97.6566 46.451 98.8678 47.6622C100.079 48.8735 101.72 49.5562 103.433 49.5613H112.053C113.766 49.5562 115.407 48.8735 116.618 47.6622C117.829 46.451 118.512 44.8097 118.517 43.0967V30.1676C118.517 29.5961 118.29 29.048 117.886 28.6439C117.482 28.2398 116.934 28.0128 116.362 28.0128ZM105.588 23.7031C105.588 23.1316 105.815 22.5835 106.219 22.1794C106.623 21.7753 107.172 21.5482 107.743 21.5482C108.315 21.5482 108.863 21.7753 109.267 22.1794C109.671 22.5835 109.898 23.1316 109.898 23.7031V28.0128H105.588V23.7031ZM114.208 43.0967C114.208 43.6682 113.981 44.2163 113.576 44.6205C113.172 45.0246 112.624 45.2516 112.053 45.2516H103.433C102.862 45.2516 102.314 45.0246 101.91 44.6205C101.505 44.2163 101.278 43.6682 101.278 43.0967V32.3225H114.208V43.0967Z" fill="white"/>
</svg>
