<svg width="122" height="127" viewBox="0 0 122 127" fill="none" xmlns="http://www.w3.org/2000/svg">
<path d="M88.3448 78.2428V72.542L95.3304 68.7148C95.4503 68.6496 95.5618 68.5739 95.6669 68.4856C99.0346 65.6783 100.966 61.5567 100.966 57.1765V52.5712H102.017C106.077 52.5712 109.379 49.2698 109.379 45.2113C109.379 42.8329 108.227 40.7364 106.468 39.3885C106.986 37.0795 107.276 34.369 107.276 31.5427C107.276 14.1501 93.1218 0 75.7241 0C67.6974 0 60.1755 2.99656 54.33 8.4114H48.3793C41.419 8.4114 35.7586 14.0702 35.7586 21.0285C35.7586 24.2627 36.9933 27.2088 39.0021 29.4441C36.1204 29.463 33.6215 31.4187 32.9211 34.2197L32.0145 37.8513H25.2414V37.2919C25.2414 34.1734 22.9129 31.4881 19.825 31.0486L11.7141 29.8899C9.01748 29.4988 6.39448 30.8803 5.17869 33.3133L0.666793 42.3325C0.229276 43.203 0 44.1788 0 45.1524V71.3476C0 74.7205 1.31255 77.8874 3.69786 80.27L10.1554 86.7299C11.7457 88.3155 12.6207 90.4267 12.6207 92.6747V124.068C12.6207 125.229 13.5609 126.171 14.7241 126.171H33.6552H117.793C118.895 126.171 119.812 125.319 119.89 124.217L122 94.6282C122 87.203 99.6467 80.9345 88.3448 78.2428ZM57.889 84.0467L64.6306 107.636L61.2293 107.258L60.7644 111.436L96.7586 115.436V121.965H52.2476L47.3213 94.0583C46.564 89.7433 44.7698 85.6091 42.1384 82.1015C40.2474 79.5823 37.759 77.5047 34.9404 76.0979L28.1967 72.727C27.6561 72.4558 27.2796 71.9679 27.124 71.3938L27.0398 71.0195L25.8177 61.2476C25.742 60.6399 25.9229 60.0532 26.3268 59.5947C26.6381 59.2415 27.0567 59.0564 27.5047 58.9681C28.5817 67.2092 35.6366 73.5997 44.1724 73.5997C53.253 73.5997 60.655 66.368 60.9706 57.3657C61.204 57.5234 61.427 57.7001 61.6226 57.9167C62.2873 58.6527 62.6007 59.6011 62.5019 60.5873L61.2335 73.257C61.1367 74.218 60.7076 75.1243 60.0282 75.8035C57.8743 77.9568 57.0539 81.1132 57.889 84.0467ZM31.4171 90.6664L28.5017 77.5804L33.0578 79.8578C35.2938 80.9765 37.271 82.623 38.7729 84.625C39.0463 84.9908 39.2756 85.3862 39.528 85.7668C35.7018 87.4323 33.0305 89.0304 31.4171 90.6664ZM31.5517 56.7769C31.5517 49.8186 37.2121 44.1598 44.1724 44.1598C51.1327 44.1598 56.7931 49.8186 56.7931 56.7769C56.7931 63.7353 51.1327 69.394 44.1724 69.394C37.2121 69.394 31.5517 63.7353 31.5517 56.7769ZM60.4847 52.7226C59.3446 48.1405 56.3346 44.2923 52.3001 42.057H71.5172V71.4969H65.6381L66.6877 61.0058C66.9023 58.8524 66.1934 56.6991 64.7399 55.0946C63.6146 53.8519 62.1106 53.0339 60.4847 52.7226ZM67.3103 75.7026H73.6207H79.3042C80.9638 75.7026 82.6087 75.3682 84.1379 74.7416V83.2034C79.34 87.4091 72.1083 87.4091 67.3103 83.2034V75.7026ZM96.7586 57.1765C96.7586 60.2403 95.4356 63.1275 93.1218 65.1273L83.4165 70.4454C82.1586 71.1352 80.7388 71.4969 79.3042 71.4969H75.7241V39.9541C75.7241 38.7934 74.7839 37.8513 73.6207 37.8513H56.3303L55.4217 34.2176C55.3712 34.0178 55.2933 33.8348 55.226 33.6456H87.6044L96.7586 40.9635V57.1765ZM102.017 48.3655H100.966V42.057H102.017C103.757 42.057 105.172 43.4722 105.172 45.2113C105.172 46.9503 103.757 48.3655 102.017 48.3655ZM75.7241 4.2057C90.8017 4.2057 103.069 16.4695 103.069 31.5427C103.069 33.8306 102.867 36.0197 102.499 37.8997C102.337 37.8891 102.181 37.8513 102.017 37.8513H99.6004L90.4483 30.5313V21.0285C90.4483 14.0702 84.7879 8.4114 77.8276 8.4114H61.1851C65.4993 5.68821 70.4866 4.2057 75.7241 4.2057ZM48.3793 12.6171H77.8276C82.4678 12.6171 86.2414 16.3896 86.2414 21.0285V29.4399H49.3006H48.3793C43.7391 29.4399 39.9655 25.6674 39.9655 21.0285C39.9655 16.3896 43.7391 12.6171 48.3793 12.6171ZM37.0018 35.2395C37.2373 34.3017 38.0766 33.6456 39.0442 33.6456H48.3793H49.3006C50.2682 33.6456 51.1054 34.3017 51.3431 35.2395L51.9972 37.8513H36.3476L37.0018 35.2395ZM36.0447 42.057C31.436 44.6119 28.1547 49.2655 27.4858 54.7182C25.8324 54.8297 24.278 55.5573 23.1737 56.8064C21.9768 58.1627 21.4194 59.969 21.6424 61.7628L22.8582 71.4969H18.931V65.1883H18.809C20.1784 63.8509 21.0345 61.992 21.0345 59.9312V42.057H23.1379H36.0447ZM13.1297 83.7544L6.67214 77.2944C5.08193 75.7068 4.2069 73.5955 4.2069 71.3476V45.1524C4.2069 44.8285 4.28262 44.5005 4.42776 44.2124L8.93966 35.1933C9.34352 34.3837 10.2101 33.9232 11.1167 34.0535L19.2276 35.2122C20.2583 35.3573 21.0345 36.2531 21.0345 37.2919V37.8513H18.931H12.6207V42.057H16.8276V46.2627H12.6207V50.4684H16.8276V54.6741H12.6207V58.8798H16.8276V59.9312C16.8276 61.6703 15.412 63.0855 13.6724 63.0855H12.6207V67.2912H13.6724C14.0321 67.2912 14.3771 67.2344 14.7241 67.1839V73.5997C14.7241 74.7605 15.6644 75.7026 16.8276 75.7026H23.7753L29.5009 101.393L29.9216 101.298L31.3961 121.965H16.8276V92.6747C16.8276 89.3038 15.515 86.1348 13.1297 83.7544ZM33.6552 94.6282C33.6552 94.6093 33.895 92.7377 41.5704 89.4489C42.3109 91.1585 42.8536 92.9543 43.1775 94.788L47.9755 121.965H35.6114L33.6552 94.6282ZM115.835 121.965H100.966V105.142H96.7586V111.205L69.153 108.139L61.936 82.8922C61.5196 81.4286 61.9276 79.8536 63.0025 78.7769C63.0403 78.7391 63.0677 78.6949 63.1035 78.6571V84.114C63.1035 84.6712 63.3243 85.2074 63.7198 85.6007C67.0285 88.9085 71.3784 90.5634 75.7241 90.5634C80.0699 90.5634 84.4198 88.9085 87.7285 85.6007C88.124 85.2074 88.3448 84.6712 88.3448 84.114V82.5747C104.06 86.4355 117.793 91.9912 117.799 94.4789L115.835 121.965Z" fill="white"/>
<path d="M86.0265 42.7522C84.014 42.7522 82.377 44.3893 82.377 46.4018C82.377 48.4142 84.014 50.0513 86.0265 50.0513C88.039 50.0513 89.6761 48.4142 89.6761 46.4018C89.6761 44.3893 88.039 42.7522 86.0265 42.7522ZM85.5052 46.4018C85.5052 46.114 85.7387 45.8804 86.0265 45.8804C86.3143 45.8804 86.5479 46.114 86.5479 46.4018C86.5479 46.9753 85.5052 46.9753 85.5052 46.4018Z" fill="white"/>
<path d="M43.795 65.6921C48.3956 65.6921 52.1369 61.7169 52.1369 56.8288C52.1369 51.9407 48.3956 47.9656 43.795 47.9656C39.1945 47.9656 35.4531 51.9407 35.4531 56.8288C35.4531 61.7169 39.1945 65.6921 43.795 65.6921ZM43.795 52.3972C46.0953 52.3972 47.9659 54.3848 47.9659 56.8288C47.9659 59.2729 46.0953 61.2604 43.795 61.2604C41.4947 61.2604 39.6241 59.2729 39.6241 56.8288C39.6241 54.3848 41.4947 52.3972 43.795 52.3972Z" fill="white"/>
</svg>
