<svg width="108" height="111" viewBox="0 0 108 111" fill="none" xmlns="http://www.w3.org/2000/svg">
<path d="M6.03448 59.2H15.8404C15.4729 60.2255 15.4168 61.3373 15.6792 62.3948C15.9416 63.4523 16.5107 64.4081 17.3147 65.1413L32.4603 79.0625L32.4616 79.0611C32.4743 79.0727 32.4847 79.0857 32.4988 79.0968L56.4338 99.9H55.8448C55.3555 99.9 54.8863 100.095 54.5403 100.442C54.1944 100.789 54 101.259 54 101.75V109.15C54 109.641 54.1944 110.111 54.5403 110.458C54.8863 110.805 55.3555 111 55.8448 111H77.9828C78.472 111 78.9413 110.805 79.2872 110.458C79.6332 110.111 79.8276 109.641 79.8276 109.15V101.75C79.8276 101.259 79.6332 100.789 79.2872 100.442C78.9413 100.095 78.472 99.9 77.9828 99.9V96.9661L78.9707 95.9755C79.8299 95.1186 80.5112 94.0992 80.9749 92.9765C81.4387 91.8538 81.6757 90.65 81.6724 89.4348V78.1008L88.3599 63.347C88.955 62.0406 89.0192 60.5531 88.5389 59.2H101.966C103.433 59.1983 104.84 58.613 105.877 57.5725C106.915 56.5321 107.498 55.1214 107.5 53.65V49.95C107.5 49.4594 107.306 48.9888 106.96 48.6419C106.614 48.2949 106.144 48.1 105.655 48.1H98.2759V46.25C98.2759 24.8279 80.8967 7.4 59.5345 7.4V3.7H61.3793C61.8686 3.7 62.3378 3.50509 62.6838 3.15815C63.0298 2.81121 63.2241 2.34065 63.2241 1.85C63.2241 1.35935 63.0298 0.888795 62.6838 0.541852C62.3378 0.19491 61.8686 0 61.3793 0H46.6207C46.1314 0 45.6622 0.19491 45.3162 0.541852C44.9702 0.888795 44.7759 1.35935 44.7759 1.85C44.7759 2.34065 44.9702 2.81121 45.3162 3.15815C45.6622 3.50509 46.1314 3.7 46.6207 3.7H48.4655V7.4C27.1033 7.4 9.72414 24.8279 9.72414 46.25V48.1H2.34483C1.85555 48.1 1.38631 48.2949 1.04034 48.6419C0.694365 48.9888 0.5 49.4594 0.5 49.95V53.65C0.501709 55.1214 1.08535 56.5321 2.1229 57.5725C3.16045 58.613 4.56717 59.1983 6.03448 59.2ZM19.335 60.3794C19.4648 60.0286 19.6999 59.7269 20.0078 59.5157C20.3157 59.3045 20.6814 59.1942 21.0544 59.2H22.1075C22.4616 59.2004 22.8082 59.3029 23.1059 59.4951C23.4036 59.6873 23.6401 59.9613 23.787 60.2843L25.1739 63.3438V63.3465L28.2824 70.2043L19.8077 62.4144C19.5287 62.1659 19.3334 61.8367 19.2488 61.4722C19.1641 61.1078 19.1942 60.726 19.335 60.3794ZM76.1379 107.3H57.6897V103.6H76.1379V107.3ZM84.8727 60.0485C85.0426 60.3076 85.1435 60.6059 85.166 60.9152C85.1885 61.2245 85.1318 61.5344 85.0012 61.8154L78.1481 76.9343C78.0392 77.1748 77.9828 77.4359 77.9828 77.7V89.4348C77.9847 90.1639 77.8425 90.8862 77.5642 91.5598C77.286 92.2335 76.8773 92.8451 76.3618 93.3593L74.8334 94.8918C74.6621 95.0636 74.5262 95.2676 74.4335 95.492C74.3408 95.7165 74.2931 95.9571 74.2931 96.2V99.9H62.0674L35.2197 76.5669L28.5322 61.8157C28.4044 61.5338 28.3492 61.2242 28.3716 60.9154C28.3941 60.6065 28.4935 60.3083 28.6608 60.048C28.828 59.7877 29.0578 59.5736 29.3289 59.4255C29.6001 59.2773 29.904 59.1998 30.2128 59.2H31.4265C31.7693 59.1988 32.1057 59.294 32.3973 59.4747C32.689 59.6554 32.9244 59.9145 33.0767 60.2226L39.4362 72.9774C39.6383 73.3827 39.9816 73.6994 40.4011 73.8677L58.8494 81.2677C59.2094 81.4121 59.6057 81.439 59.9819 81.3447L67.3612 79.4947C67.6086 79.4327 67.8405 79.3199 68.0422 79.1635C68.244 79.0071 68.4112 78.8104 68.5333 78.5859L78.5535 60.1641C78.7122 59.8723 78.9465 59.6287 79.2315 59.4591C79.5166 59.2894 79.842 59.1999 80.1735 59.2H83.3221C83.6313 59.1972 83.936 59.2736 84.2074 59.4221C84.4788 59.5706 84.7078 59.7862 84.8727 60.0485ZM36.6918 59.2H74.8751L65.6817 76.1021L59.6657 77.61L42.4237 70.6931L36.6918 59.2ZM52.1552 3.7H55.8448V7.4H52.1552V3.7ZM13.4138 46.25C13.4138 26.8682 29.1379 11.1 48.4655 11.1H59.5345C78.862 11.1 94.5862 26.8682 94.5862 46.25V48.1H13.4138V46.25ZM4.18966 51.8H103.81V53.65C103.81 54.1405 103.615 54.6107 103.269 54.9575C102.924 55.3044 102.455 55.4995 101.966 55.5H6.03448C5.54537 55.4995 5.07645 55.3044 4.7306 54.9575C4.38475 54.6107 4.1902 54.1405 4.18966 53.65V51.8Z" fill="white"/>
</svg>
