<svg width="74" height="74" viewBox="0 0 74 74" fill="none" xmlns="http://www.w3.org/2000/svg">
<path d="M53.7096 19.0966C55.6837 19.0966 57.2902 17.4901 57.2902 15.5159C57.2902 13.5418 55.6837 11.9353 53.7096 11.9353C51.7354 11.9353 50.1289 13.5418 50.1289 15.5159C50.1289 17.4901 51.7354 19.0966 53.7096 19.0966ZM53.7096 14.3224C54.3684 14.3224 54.9031 14.8571 54.9031 15.5159C54.9031 16.1748 54.3684 16.7095 53.7096 16.7095C53.0507 16.7095 52.516 16.1748 52.516 15.5159C52.516 14.8571 53.0507 14.3224 53.7096 14.3224Z" fill="white"/>
<path d="M53.7093 23.8711C58.3152 23.8711 62.0642 20.1221 62.0642 15.5162C62.0642 10.9103 58.3152 7.16138 53.7093 7.16138C49.1034 7.16138 45.3545 10.9103 45.3545 15.5162C45.3545 20.1221 49.1034 23.8711 53.7093 23.8711ZM53.7093 9.54847C56.9999 9.54847 59.6771 12.2256 59.6771 15.5162C59.6771 18.8068 56.9999 21.484 53.7093 21.484C50.4187 21.484 47.7416 18.8068 47.7416 15.5162C47.7416 12.2256 50.4187 9.54847 53.7093 9.54847Z" fill="white"/>
<path d="M68.0323 4.77419H64.8801C62.055 1.83806 58.096 0 53.7097 0H13.129C11.1549 0 9.54839 1.60652 9.54839 3.58065V4.77419H5.96774C2.67713 4.77419 0 7.45132 0 10.7419V39.3871C0 42.6777 2.67713 45.3548 5.96774 45.3548H23.871V46.5484C23.871 48.5225 25.4775 50.129 27.4516 50.129H32.2258V52.5161H18.0524L9.15094 50.2914C8.71768 50.1839 8.27368 50.129 7.83206 50.129C4.8291 50.129 2.3871 52.571 2.3871 55.574V56.6207C2.3871 59.6225 4.8291 62.0645 7.83206 62.0645C8.27368 62.0645 8.71768 62.0096 9.15213 61.901L18.0524 59.6774H32.2258V64.4516H26.2581C24.2839 64.4516 22.6774 66.0581 22.6774 68.0323V74H51.3226V68.0323C51.3226 66.0581 49.7161 64.4516 47.7419 64.4516H41.7742V50.129H46.5484C48.5225 50.129 50.129 48.5225 50.129 46.5484V45.3548H68.0323C71.3229 45.3548 74 42.6777 74 39.3871V10.7419C74 7.45132 71.3229 4.77419 68.0323 4.77419ZM66.8387 15.5161C66.8387 22.755 60.9486 28.6452 53.7097 28.6452C46.4708 28.6452 40.5806 22.755 40.5806 15.5161C40.5806 8.27726 46.4708 2.3871 53.7097 2.3871C60.9486 2.3871 66.8387 8.27726 66.8387 15.5161ZM11.9355 3.58065C11.9355 2.92181 12.4702 2.3871 13.129 2.3871H45.479C44.4036 3.06384 43.4165 3.86232 42.5393 4.77419H11.9355V3.58065ZM16.7097 57.5517L8.57565 59.5855C8.32977 59.6464 8.08032 59.6774 7.83206 59.6774C6.14558 59.6774 4.77419 58.306 4.77419 56.6195V55.5728C4.77419 53.8875 6.14558 52.5161 7.83206 52.5161C8.08032 52.5161 8.33097 52.5472 8.57445 52.6068L16.7097 54.6418V57.5517ZM19.0968 57.2903V54.9032H32.2258V57.2903H19.0968ZM48.9355 68.0323V71.6129H25.0645V68.0323C25.0645 67.3734 25.5992 66.8387 26.2581 66.8387H47.7419C48.4008 66.8387 48.9355 67.3734 48.9355 68.0323ZM39.3871 64.4516H34.6129V50.129H39.3871V64.4516ZM47.7419 46.5484C47.7419 47.2072 47.2072 47.7419 46.5484 47.7419H27.4516C26.7928 47.7419 26.2581 47.2072 26.2581 46.5484V45.3548H47.7419V46.5484ZM71.6129 39.3871C71.6129 41.3612 70.0064 42.9677 68.0323 42.9677H5.96774C3.99361 42.9677 2.3871 41.3612 2.3871 39.3871V10.7419C2.3871 8.76781 3.99361 7.16129 5.96774 7.16129H40.6558C39.1054 9.57584 38.1936 12.4392 38.1936 15.5161C38.1936 24.0715 45.1543 31.0323 53.7097 31.0323C62.265 31.0323 69.2258 24.0715 69.2258 15.5161C69.2258 12.4392 68.3139 9.57584 66.7635 7.16129H68.0323C70.0064 7.16129 71.6129 8.76781 71.6129 10.7419V39.3871Z" fill="white"/>
<path d="M33.4196 9.54834H7.16151C5.84503 9.54834 4.77441 10.619 4.77441 11.9354V38.1935C4.77441 39.51 5.84503 40.5806 7.16151 40.5806H33.4196C34.7361 40.5806 35.8067 39.51 35.8067 38.1935V11.9354C35.8067 10.619 34.7361 9.54834 33.4196 9.54834ZM7.16151 38.1935V11.9354H33.4196L33.422 38.1935H7.16151Z" fill="white"/>
<path d="M38.1934 40.5807H69.2256V33.4194H38.1934V40.5807ZM52.5159 38.1936H47.7417V35.8065H52.5159V38.1936ZM54.903 35.8065H59.6772V38.1936H54.903V35.8065ZM66.8385 38.1936H62.0643V35.8065H66.8385V38.1936ZM40.5805 35.8065H45.3547V38.1936H40.5805V35.8065Z" fill="white"/>
<path d="M24.3214 24.6625C25.5042 23.5716 26.2585 22.0223 26.2585 20.2905C26.2585 16.9999 23.5814 14.3228 20.2908 14.3228C17.0002 14.3228 14.323 16.9999 14.323 20.2905C14.323 22.0223 15.0773 23.5716 16.2602 24.6625C12.3298 26.2606 9.54883 30.1158 9.54883 34.6131V35.8066H31.0327V34.6131C31.0327 30.1158 28.2517 26.2606 24.3214 24.6625ZM16.7101 20.2905C16.7101 18.3164 18.3166 16.7099 20.2908 16.7099C22.2649 16.7099 23.8714 18.3164 23.8714 20.2905C23.8714 22.2646 22.2649 23.8711 20.2908 23.8711C18.3166 23.8711 16.7101 22.2646 16.7101 20.2905ZM12.0207 33.4195C12.6007 29.3758 16.0883 26.2582 20.2908 26.2582C24.4932 26.2582 27.9796 29.3758 28.5609 33.4195H12.0207Z" fill="white"/>
</svg>
