<svg width="44" height="44" viewBox="0 0 44 44" fill="none" xmlns="http://www.w3.org/2000/svg">
<circle cx="22" cy="22" r="21.75" fill="url(#paint0_linear)" stroke="#5B73C8" stroke-width="0.5"/>
<path d="M16.8089 9.39551C12.74 9.39551 9.39648 12.7345 9.39648 16.8079V27.1914C9.39648 31.2603 12.7354 34.6038 16.8089 34.6038H27.1924C31.2613 34.6038 34.6048 31.2649 34.6048 27.1914V16.809C34.6048 12.739 31.2659 9.39551 27.1924 9.39551H16.8089ZM16.8089 11.6872H27.1924C27.8651 11.6863 28.5314 11.8181 29.1531 12.0751C29.7748 12.3321 30.3397 12.7093 30.8153 13.185C31.291 13.6607 31.6682 14.2255 31.9252 14.8472C32.1822 15.4689 32.3141 16.1352 32.3131 16.8079V27.1914C32.3141 27.8642 32.1822 28.5304 31.9252 29.1521C31.6682 29.7738 31.291 30.3387 30.8153 30.8144C30.3397 31.29 29.7748 31.6672 29.1531 31.9242C28.5314 32.1812 27.8651 32.3131 27.1924 32.3122H16.81C16.1372 32.3132 15.4708 32.1815 14.849 31.9246C14.2272 31.6676 13.6622 31.2905 13.1864 30.8148C12.7106 30.3391 12.3333 29.7742 12.0762 29.1524C11.8191 28.5306 11.6872 27.8643 11.6882 27.1914V16.809C11.6871 16.1362 11.8188 15.4698 12.0758 14.848C12.3327 14.2262 12.7099 13.6612 13.1856 13.1854C13.6613 12.7096 14.2262 12.3323 14.8479 12.0752C15.4697 11.8181 16.1361 11.6863 16.8089 11.6872ZM28.7679 14.1943C28.6314 14.1936 28.4962 14.2201 28.37 14.272C28.2437 14.324 28.129 14.4004 28.0325 14.497C27.936 14.5935 27.8596 14.7082 27.8076 14.8344C27.7556 14.9606 27.7292 15.0959 27.7298 15.2324C27.7298 15.8099 28.1904 16.2705 28.7679 16.2705C28.9045 16.2713 29.0399 16.2449 29.1663 16.1931C29.2926 16.1412 29.4075 16.0647 29.5041 15.9682C29.6007 15.8717 29.6773 15.7569 29.7293 15.6306C29.7813 15.5043 29.8078 15.369 29.8072 15.2324C29.8078 15.0958 29.7813 14.9604 29.7293 14.8341C29.6773 14.7078 29.6007 14.5931 29.5041 14.4966C29.4075 14.4 29.2926 14.3236 29.1663 14.2717C29.0399 14.2198 28.9045 14.1935 28.7679 14.1943ZM22.0007 15.1247C18.2194 15.1247 15.1257 18.2184 15.1257 21.9997C15.1257 25.7809 18.2194 28.8747 22.0007 28.8747C25.7819 28.8747 28.8757 25.7809 28.8757 21.9997C28.8757 18.2184 25.7819 15.1247 22.0007 15.1247ZM22.0007 17.4163C24.5478 17.4163 26.584 19.4525 26.584 21.9997C26.584 24.5469 24.5478 26.583 22.0007 26.583C19.4535 26.583 17.4173 24.5469 17.4173 21.9997C17.4173 19.4525 19.4535 17.4163 22.0007 17.4163Z" fill="white"/>
<defs>
<linearGradient id="paint0_linear" x1="22.0789" y1="-13.0044" x2="21.9576" y2="43.9999" gradientUnits="userSpaceOnUse">
<stop offset="0.03125" stop-color="#5B73C8"/>
<stop offset="0.567708" stop-color="#324FA8"/>
<stop offset="1" stop-color="#00175B"/>
</linearGradient>
</defs>
</svg>
