<svg width="44" height="44" viewBox="0 0 44 44" fill="none" xmlns="http://www.w3.org/2000/svg">
<circle cx="22" cy="22.0005" r="21.75" fill="url(#paint0_linear)" stroke="#5B73C8" stroke-width="0.5"/>
<g clip-path="url(#clip0)">
<path d="M21.3258 9.78223C19.168 9.80828 14.5288 10.1629 11.934 12.5434C10.0039 14.4559 9.32998 17.2834 9.25099 20.7798C9.18545 24.2636 9.10647 30.806 15.4128 32.5874V35.3006C15.4128 35.3006 15.3733 36.3863 16.0909 36.6089C16.9748 36.8888 17.4782 36.0535 18.3184 35.1561L19.8856 33.384C24.2004 33.7428 27.5052 32.9159 27.8858 32.7932C28.7614 32.5134 33.693 31.8832 34.4988 25.34C35.3257 18.5825 34.0963 14.3248 31.8772 12.3989H31.8637C31.194 11.7821 28.5026 9.82089 22.4896 9.79904C22.4896 9.79904 22.0434 9.76879 21.3258 9.78139V9.78223ZM21.3997 11.6821C22.0123 11.6779 22.3845 11.7039 22.3845 11.7039C27.4741 11.7174 29.9033 13.2492 30.4764 13.7651C32.3452 15.3667 33.3081 19.2051 32.6032 24.8467C31.9335 30.3169 27.9337 30.6631 27.1934 30.8993C26.8783 31.0001 23.9676 31.7177 20.3006 31.4816C20.3006 31.4816 17.5697 34.7771 16.716 35.6258C16.5807 35.7745 16.4228 35.8182 16.3219 35.7964C16.1774 35.7611 16.1337 35.5821 16.1421 35.3368L16.1682 30.8337C10.8198 29.3548 11.1349 23.7745 11.192 20.8596C11.2576 17.9447 11.8046 15.56 13.4331 13.945C15.6253 11.9628 19.5646 11.6955 21.3981 11.6821H21.3997ZM21.8031 14.5962C21.759 14.5957 21.7154 14.604 21.6746 14.6205C21.6338 14.637 21.5966 14.6615 21.5653 14.6924C21.534 14.7233 21.5091 14.7602 21.4921 14.8008C21.475 14.8413 21.4662 14.8849 21.4661 14.9289C21.4661 15.1172 21.619 15.2659 21.8031 15.2659C22.6362 15.25 23.4642 15.3993 24.2394 15.705C25.0146 16.0108 25.7216 16.467 26.3196 17.0473C27.5405 18.2329 28.1354 19.8261 28.1581 21.9091C28.1581 22.0931 28.3068 22.2461 28.495 22.2461V22.2326C28.5837 22.2329 28.6689 22.198 28.7321 22.1357C28.7952 22.0733 28.8311 21.9886 28.832 21.8999C28.8728 20.9194 28.7138 19.9409 28.3647 19.0237C28.0155 18.1066 27.4835 17.2701 26.801 16.565C25.4709 15.265 23.7853 14.5953 21.8031 14.5953V14.5962ZM17.374 15.3667C17.1361 15.332 16.8935 15.3797 16.6866 15.502H16.669C16.1885 15.7836 15.7558 16.1395 15.3867 16.5566C15.08 16.9112 14.9136 17.2699 14.8699 17.6153C14.8439 17.8212 14.8615 18.027 14.9229 18.2237L14.9447 18.2371C15.2901 19.2522 15.7413 20.2286 16.2925 21.1478C17.0026 22.4393 17.8764 23.6337 18.8923 24.7014L18.9226 24.7451L18.9705 24.7804L19.0007 24.8156L19.036 24.8459C20.1076 25.8648 21.3049 26.7427 22.5988 27.4583C24.0777 28.2633 24.9751 28.6439 25.5137 28.8019V28.8103C25.6717 28.8582 25.8154 28.8801 25.9599 28.8801C26.419 28.8464 26.8535 28.6601 27.1943 28.3507C27.6094 27.9815 27.9614 27.547 28.2362 27.0642V27.0558C28.4942 26.5701 28.4068 26.1105 28.0346 25.7996C27.2891 25.148 26.4829 24.5692 25.6272 24.0712C25.0541 23.7603 24.4718 23.9485 24.2357 24.2636L23.7323 24.898C23.4744 25.2131 23.0055 25.1694 23.0055 25.1694L22.9921 25.1778C19.4957 24.2846 18.563 20.7445 18.563 20.7445C18.563 20.7445 18.5193 20.263 18.8428 20.0177L19.473 19.5101C19.7746 19.2648 19.9847 18.6833 19.6612 18.1094C19.1666 17.2524 18.5891 16.4461 17.9369 15.702C17.7944 15.5266 17.5944 15.4072 17.3723 15.365L17.374 15.3667ZM22.3845 16.365C21.9383 16.365 21.9383 17.0389 22.3887 17.0389C22.9436 17.0479 23.4912 17.1661 24.0003 17.3869C24.5094 17.6076 24.97 17.9265 25.3558 18.3253C25.7077 18.7136 25.9781 19.1685 26.151 19.6631C26.3239 20.1577 26.3958 20.682 26.3624 21.205C26.3639 21.2935 26.4001 21.3778 26.4631 21.44C26.526 21.5022 26.6109 21.5373 26.6994 21.5377L26.7128 21.5554C26.802 21.5547 26.8873 21.519 26.9503 21.4559C27.0134 21.3929 27.0491 21.3076 27.0498 21.2184C27.08 19.8832 26.6649 18.7631 25.8507 17.8657C25.0323 16.9683 23.8903 16.465 22.4324 16.365H22.3845ZM22.9366 18.1766C22.477 18.1632 22.4593 18.8505 22.9148 18.864C24.0222 18.9211 24.56 19.4807 24.6306 20.6319C24.6321 20.7193 24.6678 20.8026 24.73 20.864C24.7922 20.9254 24.876 20.96 24.9633 20.9604H24.9768C25.0217 20.9585 25.0658 20.9477 25.1065 20.9285C25.1472 20.9094 25.1837 20.8823 25.2138 20.8489C25.2439 20.8155 25.2671 20.7764 25.2819 20.734C25.2968 20.6915 25.303 20.6465 25.3003 20.6016C25.2213 19.1009 24.4029 18.2556 22.95 18.1774H22.9366V18.1766Z" fill="white"/>
</g>
<defs>
<linearGradient id="paint0_linear" x1="22.0789" y1="-13.004" x2="21.9576" y2="44.0004" gradientUnits="userSpaceOnUse">
<stop offset="0.03125" stop-color="#5B73C8"/>
<stop offset="0.567708" stop-color="#324FA8"/>
<stop offset="1" stop-color="#00175B"/>
</linearGradient>
<clipPath id="clip0">
<rect width="26.8889" height="26.8889" fill="white" transform="translate(8.55566 9.77783)"/>
</clipPath>
</defs>
</svg>
