<svg width="44" height="44" viewBox="0 0 44 44" fill="none" xmlns="http://www.w3.org/2000/svg">
<circle cx="22" cy="22" r="21.75" fill="url(#paint0_linear)" stroke="#5B73C8" stroke-width="0.5"/>
<path fill-rule="evenodd" clip-rule="evenodd" d="M31.0939 12.9144C29.9097 11.7228 28.5008 10.778 26.9488 10.1348C25.3969 9.49155 23.7328 9.16261 22.0528 9.16704C15.0105 9.16704 9.27296 14.8993 9.27296 21.9415C9.26762 24.1839 9.85576 26.3878 10.9777 28.3293L9.16602 34.9503L15.942 33.1707C17.8157 34.1914 19.9149 34.727 22.0485 34.7289H22.0539C29.0973 34.7289 34.8284 28.9977 34.8327 21.9501C34.8327 18.5375 33.5044 15.3292 31.0939 12.9133V12.9144ZM22.0528 32.5697H22.0485C20.1466 32.5697 18.2796 32.0589 16.6425 31.0906L16.2543 30.8607L12.231 31.9141L13.3048 27.9946L13.0545 27.5936C11.99 25.9008 11.4264 23.9412 11.429 21.9415C11.429 16.0895 16.1955 11.3273 22.0571 11.3273C23.4521 11.3238 24.8339 11.5971 26.1226 12.1313C27.4113 12.6655 28.5812 13.45 29.5646 14.4394C30.5529 15.4241 31.3362 16.5948 31.8695 17.8839C32.4027 19.173 32.6752 20.555 32.6713 21.9501C32.6713 27.8075 27.9048 32.5697 22.0518 32.5697H22.0528ZM27.8759 24.6152C27.5583 24.4569 25.9873 23.6847 25.6954 23.5799C25.4034 23.4709 25.1895 23.4206 24.9767 23.7382C24.7628 24.059 24.1532 24.7788 23.9661 24.9916C23.7821 25.2001 23.5939 25.2301 23.2763 25.0707C22.9554 24.9125 21.9277 24.5735 20.7075 23.4837C19.7589 22.6388 19.1161 21.5908 18.9322 21.2731C18.744 20.9523 18.9108 20.7812 19.0701 20.6208C19.2156 20.4796 19.391 20.2497 19.5503 20.0615C19.7086 19.8786 19.7642 19.7449 19.8712 19.531C19.976 19.3182 19.9225 19.13 19.8423 18.9717C19.7631 18.8134 19.1247 17.2381 18.8573 16.5986C18.5974 15.9762 18.3344 16.0639 18.1387 16.0521C17.9547 16.0436 17.7419 16.0436 17.5291 16.0436C17.3152 16.0436 16.9687 16.1227 16.6757 16.4446C16.3837 16.7622 15.5602 17.5354 15.5602 19.1054C15.5602 20.6764 16.7045 22.1961 16.8649 22.41C17.0232 22.6185 19.1161 25.8429 22.3191 27.2267C23.0806 27.5561 23.673 27.7529 24.1372 27.8994C24.9018 28.1411 25.5991 28.108 26.1509 28.0278C26.7648 27.9369 28.0385 27.2556 28.3059 26.5081C28.57 25.7648 28.57 25.1253 28.4898 24.9916C28.4107 24.8579 28.1979 24.7777 27.8759 24.6152Z" fill="white"/>
<defs>
<linearGradient id="paint0_linear" x1="22.0789" y1="-13.0044" x2="21.9576" y2="43.9999" gradientUnits="userSpaceOnUse">
<stop offset="0.03125" stop-color="#5B73C8"/>
<stop offset="0.567708" stop-color="#324FA8"/>
<stop offset="1" stop-color="#00175B"/>
</linearGradient>
</defs>
</svg>
