<svg width="26" height="26" viewBox="0 0 26 26" fill="none" xmlns="http://www.w3.org/2000/svg">
<path d="M12.348 0.00427157C10.2615 0.0294591 5.77573 0.372334 3.26673 2.67415C1.40042 4.5234 0.748791 7.25746 0.672416 10.6383C0.609041 14.0069 0.532666 20.333 6.63048 22.0555V24.6791C6.63048 24.6791 6.59229 25.7288 7.28617 25.9441C8.14092 26.2147 8.6276 25.4071 9.4401 24.5393L10.9554 22.8258C15.1276 23.1727 18.3232 22.3732 18.6912 22.2546C19.5379 21.984 24.3064 21.3746 25.0856 15.0477C25.8851 8.51358 24.6964 4.39665 22.5506 2.5344H22.5376C21.89 1.93802 19.2876 0.0416466 13.4734 0.0205216C13.4734 0.0205216 13.0419 -0.00872842 12.348 0.00345907V0.00427157ZM12.4195 1.84133C13.0119 1.83727 13.3718 1.86246 13.3718 1.86246C18.2931 1.87546 20.642 3.35665 21.1962 3.85552C23.0032 5.40415 23.9343 9.11565 23.2526 14.5708C22.605 19.8601 18.7375 20.1949 18.0217 20.4232C17.717 20.5207 14.9025 21.2146 11.3568 20.9863C11.3568 20.9863 8.71617 24.1729 7.89067 24.9935C7.75985 25.1373 7.6071 25.1796 7.5096 25.1585C7.36985 25.1243 7.3276 24.9513 7.33573 24.714L7.36092 20.3598C2.18935 18.9298 2.49404 13.534 2.54929 10.7155C2.61267 7.8969 3.1416 5.59102 4.71623 4.0294C6.83604 2.11271 10.645 1.85433 12.4179 1.84133H12.4195ZM12.8095 4.65908C12.767 4.65866 12.7247 4.66665 12.6853 4.68262C12.6458 4.69859 12.6099 4.72221 12.5796 4.75212C12.5494 4.78203 12.5253 4.81763 12.5088 4.85689C12.4924 4.89614 12.4838 4.93827 12.4837 4.98083C12.4837 5.16283 12.6316 5.30665 12.8095 5.30665C13.6151 5.29133 14.4158 5.43564 15.1653 5.73128C15.9149 6.02692 16.5985 6.46802 17.1767 7.02915C18.3573 8.17558 18.9325 9.71608 18.9545 11.7303C18.9545 11.9082 19.0983 12.0561 19.2803 12.0561V12.0431C19.3661 12.0433 19.4485 12.0096 19.5095 11.9493C19.5705 11.8891 19.6052 11.8071 19.6061 11.7213C19.6456 10.7733 19.4918 9.82708 19.1542 8.94028C18.8166 8.05348 18.3022 7.24459 17.6423 6.56277C16.3561 5.30583 14.7262 4.65827 12.8095 4.65827V4.65908ZM8.52685 5.40415C8.29687 5.37054 8.06232 5.41671 7.86223 5.53496H7.84517C7.38063 5.80726 6.96215 6.15142 6.60529 6.55465C6.30873 6.89752 6.14785 7.24446 6.1056 7.5784C6.08042 7.77746 6.09748 7.97652 6.15679 8.16665L6.17792 8.17965C6.51185 9.16115 6.94817 10.1053 7.48117 10.9941C8.16775 12.2429 9.01269 13.3978 9.99504 14.4302L10.0243 14.4725L10.0706 14.5066L10.0999 14.5407L10.134 14.57C11.1701 15.5552 12.3278 16.4041 13.579 17.096C15.009 17.8744 15.8767 18.2425 16.3975 18.3952V18.4033C16.5503 18.4496 16.6892 18.4708 16.829 18.4708C17.2728 18.4383 17.693 18.258 18.0225 17.9589C18.4239 17.6019 18.7643 17.1818 19.03 16.715V16.7068C19.2795 16.2372 19.195 15.7928 18.835 15.4921C18.1142 14.8621 17.3347 14.3024 16.5072 13.8208C15.9531 13.5202 15.39 13.7022 15.1617 14.0069L14.675 14.6203C14.4256 14.925 13.9722 14.8828 13.9722 14.8828L13.9592 14.8909C10.5784 14.0272 9.67654 10.6041 9.67654 10.6041C9.67654 10.6041 9.63429 10.1386 9.9471 9.90133L10.5565 9.41058C10.8482 9.17333 11.0513 8.61108 10.7385 8.05615C10.2602 7.22752 9.70181 6.44784 9.07123 5.72833C8.93337 5.55871 8.73997 5.4433 8.52523 5.40252L8.52685 5.40415ZM13.3718 6.3694C12.9404 6.3694 12.9404 7.02102 13.3759 7.02102C13.9123 7.02972 14.4418 7.14406 14.9341 7.3575C15.4264 7.57095 15.8718 7.87931 16.2448 8.26496C16.5851 8.64034 16.8466 9.08021 17.0138 9.55849C17.181 10.0368 17.2505 10.5438 17.2182 11.0494C17.2197 11.135 17.2546 11.2166 17.3155 11.2767C17.3764 11.3368 17.4584 11.3707 17.544 11.3711L17.557 11.3882C17.6432 11.3876 17.7257 11.353 17.7867 11.2921C17.8476 11.2311 17.8822 11.1486 17.8828 11.0624C17.912 9.77133 17.5107 8.68827 16.7234 7.82052C15.932 6.95277 14.8278 6.46608 13.4181 6.3694H13.3718V6.3694ZM13.9056 8.12115C13.4612 8.10815 13.4441 8.77277 13.8845 8.78577C14.9554 8.84102 15.4754 9.38215 15.5436 10.4953C15.5451 10.5798 15.5796 10.6603 15.6397 10.7197C15.6999 10.7791 15.7808 10.8125 15.8654 10.813H15.8784C15.9218 10.8111 15.9644 10.8006 16.0038 10.7821C16.0431 10.7636 16.0784 10.7374 16.1075 10.7051C16.1366 10.6728 16.159 10.635 16.1734 10.594C16.1878 10.5529 16.1938 10.5094 16.1912 10.466C16.1148 9.0149 15.3234 8.19752 13.9186 8.12196H13.9056V8.12115Z" fill="#0E2671"/>
</svg>
